<svg fill="#000000" xmlns="http://www.w3.org/2000/svg"  viewBox="0 0 26 26" width="52px" height="52px"><path d="M 15.65625 6.1875 C 13.027344 6.1875 11.8125 7.695313 11.3125 8.59375 L 11.3125 18 L 22.75 18 C 23.679688 18 25.8125 17.234375 25.8125 14.65625 C 25.8125 12.277344 23.636719 11.1875 22.5625 11.1875 C 21.582031 11.1875 21.15625 11.5625 21.15625 11.5625 C 21.15625 11.5625 21.070313 6.1875 15.65625 6.1875 Z M 8.34375 8.34375 C 8.113281 8.34375 7.886719 8.34375 7.6875 8.375 L 7.6875 18 L 9 18 L 9 8.375 C 8.789063 8.34375 8.582031 8.34375 8.34375 8.34375 Z M 7 8.5625 C 6.652344 8.699219 6.371094 8.882813 6.125 9.09375 L 6.125 18 L 7 18 Z M 9.6875 8.5625 L 9.6875 18 L 11.03125 18 L 11.03125 9.21875 C 11.019531 9.25 11 9.25 11 9.25 C 11 9.25 10.53125 8.835938 9.6875 8.5625 Z M 5.03125 10.8125 C 4.921875 11.15625 4.875 11.40625 4.875 11.40625 C 4.875 11.40625 4.273438 11.320313 3.5 11.40625 L 3.5 18 L 5.03125 18 Z M 2 11.78125 C 1.03125 12.21875 0.1875 13.09375 0.1875 14.78125 C 0.1875 16.414063 1.09375 17.25 2 17.65625 Z"/></svg>